<svg width="29" height="19" viewBox="0 0 29 19" fill="none" xmlns="http://www.w3.org/2000/svg">
<rect y="3" width="13" height="3" rx="1" fill="#494959"/>
<rect width="13" height="3" rx="1" transform="matrix(-1 0 0 1 29 13)" fill="#494959"/>
<rect x="20" y="3" width="9" height="3" rx="1" fill="#494959"/>
<rect width="9" height="3" rx="1" transform="matrix(-1 0 0 1 9 13)" fill="#494959"/>
<path d="M21 4.5C21 6.98528 18.9853 9 16.5 9C14.0147 9 12 6.98528 12 4.5C12 2.01472 14.0147 0 16.5 0C18.9853 0 21 2.01472 21 4.5ZM14.1278 4.5C14.1278 5.8101 15.1899 6.87215 16.5 6.87215C17.8101 6.87215 18.8722 5.8101 18.8722 4.5C18.8722 3.1899 17.8101 2.12785 16.5 2.12785C15.1899 2.12785 14.1278 3.1899 14.1278 4.5Z" fill="#494959"/>
<path d="M8 14.5C8 16.9853 10.0147 19 12.5 19C14.9853 19 17 16.9853 17 14.5C17 12.0147 14.9853 10 12.5 10C10.0147 10 8 12.0147 8 14.5ZM14.8722 14.5C14.8722 15.8101 13.8101 16.8722 12.5 16.8722C11.1899 16.8722 10.1278 15.8101 10.1278 14.5C10.1278 13.1899 11.1899 12.1278 12.5 12.1278C13.8101 12.1278 14.8722 13.1899 14.8722 14.5Z" fill="#494959"/>
</svg>
